<?xml version="1.0" encoding="UTF-8"?>
<svg id="Layer_1" data-name="Layer 1" xmlns="http://www.w3.org/2000/svg" viewBox="0 0 1080 1080">
  <defs>
    <style>
      .cls-1 {
        fill: #20c997;
      }
    </style>
  </defs>
  <path class="cls-1" d="M585.93,434.81c35.44-10.59,60-5.3,90.31-5.85,17.77-.32,43.13-2.81,73.92-13.01,9.11-4.64,22.11-12.48,34.68-25.3,36.21-36.91,49.94-100.07,29.61-146.66-11.94-27.37-46.4-39.56-73.39-27.37-27.62,12.56-39.31,45.9-27.24,73.39.02.04.22.47.44,1.09.71,1.94.96,3.69,1.05,5,0,.6-.05,1.22-.12,1.87-.44,3.74-1.98,6.69-3.36,8.71-.5.62-2.74,3.73-3.23,4.35-1.24.99-2.61,2.24-2.86,2.49-2.36,1.62-3.73,2.74-4.73,3.36-4.48,2.61-9.58,4.73-14.55,6.34-.62.12-5.85,1.37-6.1,1.49-4.23.75-8.34,1.62-12.56,2.11-9.21,1.37-18.41,1.99-27.62,2.36-22.14.87-44.53.12-66.8,2.36-44.91,4.6-89.44,25.75-107.73,69.54-16.67,40.06-6.22,89.19,21.15,122.16,27.12,32.47,68.79,49.39,110.22,52.87,10.45.87,20.9,1.87,31.35,1.99.87,0,3.48-.12,5.72,1.37,1,.62,1.99,1.74,2.11,1.87.87.75,1.62,1.49,2.12,2.36.75,1.37,1.12,3.48.5,5.1-1.24,3.48-6.59,4.48-6.97,4.73-14.57,1.3-34.95,3.54-59.09,7.59-41.92,7.03-96.45,16.18-155.73,43.34-115.65,52.98-151.53,129.68-157.5,145.56-.85,2.27-2.1,8.65-3.11,16.98-3.27,26.96,22.63,60.04,49.01,61.08,25.32,1,47.19-27.59,54.11-41.65,6.06-12.32,9.6-17.86,16.68-28.95,1.27-1.99,3.97-6.15,8.33-10.88,3.85-4.18,7.3-6.77,9.21-8.46,8.83-7.84,18.16-15.18,27.86-22.02,28.61-20.15,63.07-33.46,96.28-39.43,39.56-7.22,80.36-3.61,119.92-11.2,26.33-5.05,88.88-22.68,110.46-74.14,1.8-4.3,17.29-42.76-.99-74.89-18.67-32.81-62.64-41.55-90.81-47.15-46.64-9.27-68.91-1.02-89.07-19.41-9.95-9.08-17.29-23.01-10.2-36.07,5.72-10.45,17.91-15.8,28.74-19.03Z"/>
</svg>